<svg xmlns="http://www.w3.org/2000/svg" width="64" height="64" viewBox="0 0 64 64">
  <defs>
    <linearGradient id="holoGradient64" x1="0%" y1="0%" x2="100%" y2="100%">
      <stop offset="0%" stop-color="#94c0d4"/>
      <stop offset="50%" stop-color="#a8d0e0"/>
      <stop offset="100%" stop-color="#94c0d4"/>
    </linearGradient>
    <filter id="glow64" x="-50%" y="-50%" width="200%" height="200%">
      <feGaussianBlur in="SourceGraphic" stdDeviation="3" result="blur"/>
      <feColorMatrix in="blur" type="matrix" values="1 0 0 0 0  0 1 0 0 0  0 0 1 0 0  0 0 0 0.5 0"/>
    </filter>
  </defs>

  <!-- Classroom Board - EVEN LARGER -->
  <rect x="10" y="14" width="44" height="26" fill="url(#holoGradient64)" rx="4" filter="url(#glow64)"/>
  
  <!-- Board Frame -->
  <rect x="8" y="10" width="48" height="4" fill="#7aa8c0" rx="2"/>
  
  <!-- Board Content -->
  <line x1="16" y1="20" x2="48" y2="20" stroke="#fff" stroke-width="3"/>
  <line x1="16" y1="26" x2="46" y2="26" stroke="#fff" stroke-width="3"/>
  <line x1="16" y1="32" x2="44" y2="32" stroke="#fff" stroke-width="3"/>
  <line x1="16" y1="38" x2="48" y2="38" stroke="#fff" stroke-width="3"/>
  
  <!-- Student Chairs -->
  <rect x="12" y="42" width="12" height="12" fill="url(#holoGradient64)" rx="3" filter="url(#glow64)"/>
  <rect x="26" y="42" width="12" height="12" fill="url(#holoGradient64)" rx="3" filter="url(#glow64)"/>
  <rect x="40" y="42" width="12" height="12" fill="url(#holoGradient64)" rx="3" filter="url(#glow64)"/>
  
  <!-- Chair Backs -->
  <rect x="12" y="36" width="12" height="6" fill="#7aa8c0" rx="2"/>
  <rect x="26" y="36" width="12" height="6" fill="#7aa8c0" rx="2"/>
  <rect x="40" y="36" width="12" height="6" fill="#7aa8c0" rx="2"/>
  
  <!-- Books Stack -->
  <rect x="48" y="16" width="8" height="14" fill="url(#holoGradient64)" rx="2" filter="url(#glow64)"/>
  <rect x="48" y="10" width="8" height="12" fill="#7aa8c0" rx="2"/>
  <rect x="48" y="4" width="8" height="10" fill="url(#holoGradient64)" rx="2" filter="url(#glow64)"/>
  
  <!-- Book Lines -->
  <line x1="50" y1="18" x2="56" y2="18" stroke="#fff" stroke-width="2"/>
  <line x1="50" y1="22" x2="55" y2="22" stroke="#fff" stroke-width="2"/>
  <line x1="50" y1="26" x2="54" y2="26" stroke="#fff" stroke-width="2"/>
</svg>